<?xml version="1.0" encoding="utf-8"?>
<!-- Generator: Adobe Illustrator 26.0.0, SVG Export Plug-In . SVG Version: 6.00 Build 0)  -->
<svg version="1.1" id="Layer_1" xmlns="http://www.w3.org/2000/svg" xmlns:xlink="http://www.w3.org/1999/xlink" x="0px" y="0px"
	 viewBox="0 0 461.7 480" style="enable-background:new 0 0 461.7 480;" xml:space="preserve">
<style type="text/css">
	.st0{fill:#FFFFFF;stroke:#000000;stroke-width:29;stroke-miterlimit:10;}
	.st1{stroke:#000000;stroke-width:6;stroke-miterlimit:10;}
	.st2{fill:#FFFFFF;stroke:#000000;stroke-width:2;stroke-miterlimit:10;}
	.st3{fill:#FFFFFF;stroke:#000000;stroke-width:27.9984;stroke-miterlimit:9.9994;}
</style>
<path class="st0" d="M374.9,433.8c14.7-7,39.4-21.5,51.6-47.9c24.5-52.8-20.7-111.2-28-121.6c-54.7-78.4-134.7-50.8-178.6-123.6
	c-26-43.2-7.8-69.3-38.7-93.7C144.9,18.4,73.8,17.9,41.3,49c-21.5,20.5-15,44.2,6.5,195.4c16.3,114.8,16.5,128.4,34.4,149.5
	c54.5,64,160.7,62.1,182.9,61.8C313.4,455.1,351.8,443,374.9,433.8z"/>
<path class="st1" d="M296.3,402.9c32.8-8,67.3-16.4,77.5-39.9c14.5-33.5-25.2-86.6-68.9-109.7c-19.7-10.4-35.6-12.2-78-34.1
	c-11.8-6.1-27.5-14.7-40.9-31.1c-8.2-10.1-12.2-19.1-16-27.9c-18.2-42-7.9-64.1-26.5-76.3c-9.6-6.3-22.1-6.8-28.1-7.1
	c-9.4-0.4-22.9,0.8-30,5.1c-18.4,11.2-1.6,49,6.5,115.7c4.2,34.5,8.8,100.4,21.5,139.6c2.1,6.4,5.9,17,15.1,27.9
	c2.8,3.3,10.7,12.2,28,21.9c5.2,2.9,27.8,15.1,62.4,19.9C252.7,411.6,280.6,406.7,296.3,402.9z"/>
<path class="st2" d="M273.7,392c22.4-3.1,70.9-9.3,79.6-35.9c5.3-16.1-4.8-37.7-5.4-38.9c-3.3-6.9-7.1-11.5-10.8-16
	c-10.9-13.3-23-21.6-30.1-25.9c-13-7.8-15.3-5.8-40.9-16c-5.7-2.3-4,0.8-48.4-22.9c-25-13.4-32.9-20.4-36.6-23.9
	c-2.2-2.1-12.4-12-21.5-27.9c-2.7-4.8-8.8-16.1-12.9-31.9c-7.8-30-0.6-44.6-12.9-53.8c-4-3-10.3-5.7-17.2-6
	c-8.7-0.4-15.5,2.9-17.2,4c-14.3,8.6,3.6,47.2,10.8,97.7c3.9,27.4,9.9,89.6,17.2,123.6c1.1,4.9,3.4,15.1,10.8,25.9
	c5.6,8.2,11.7,13.4,17.2,18c2.1,1.8,15,12.4,32.3,19.9C223.5,397.8,262.3,393.5,273.7,392z"/>
<ellipse transform="matrix(0.5987 -0.8009 0.8009 0.5987 51.5042 296.5121)" class="st3" cx="321.7" cy="96.9" rx="60.5" ry="90.5"/>
</svg>
